<svg viewBox="0 0 71 70" version="1.1" xmlns="http://www.w3.org/2000/svg" xmlns:xlink="http://www.w3.org/1999/xlink">
    <g id="Homepage" stroke="none" stroke-width="1" fill="none" fill-rule="evenodd" transform="translate(-20.000000, -15.000000)">
        <path d="M34.0838102,26.2670481 L32.5358599,26.2670481 C31.140167,26.2670481 30.6833947,26.2924244 29.8967315,26.4193055 L29.8967315,24.9474839 C30.7341472,25.0743651 31.2924244,25.0997413 32.5358599,25.0997413 L32.9926321,25.0997413 C34.0076815,25.0997413 34.6420873,25.0743651 35.5302555,25.0236126 C35.4033744,25.9371571 35.3526219,26.6476916 35.3526219,27.7388697 L35.3526219,29.8958497 C35.3526219,30.9362753 35.4033744,31.4945524 35.5302555,32.4842256 C34.1853151,33.3216413 33.5001568,33.6515324 32.3836024,33.9814234 C31.2162957,34.3366907 29.8206028,34.5397006 28.5264148,34.5397006 C26.4455636,34.5397006 24.7961083,34.0575521 23.4765441,33.0932552 C21.2434355,31.4438 20,28.4747805 20,24.8206028 C20,20.8619102 21.4718216,17.7660096 24.0855738,16.1419306 C25.3543855,15.3552673 26.7754546,15 28.551791,15 C30.3281274,15 31.8253253,15.4060198 32.9418796,16.1673068 C34.1091864,16.9793463 34.819721,17.8928907 35.5302555,19.5677222 L34.2614438,20.0752469 C33.2717707,17.486871 31.3685531,16.192683 28.5010386,16.192683 C24.11095,16.192683 21.3703167,19.5169697 21.3703167,24.845979 C21.3703167,28.3225231 22.6137522,31.0631565 24.7707321,32.4334731 C25.7857815,33.0425027 27.1814744,33.39777 28.6786722,33.39777 C30.7341472,33.39777 32.4851074,32.8902453 34.0838102,31.8244435 L34.0838102,26.2670481 Z M47.1271947,15 C52.2785703,15 55.5521046,18.8064352 55.5521046,24.7952265 C55.5521046,30.7840179 52.2785703,34.5650768 47.1271947,34.5650768 C41.9758191,34.5650768 38.7022848,30.7840179 38.7022848,24.7952265 C38.7022848,18.8318114 42.0011953,15 47.1271947,15 Z M47.1525709,33.3470176 C51.4665308,33.3470176 54.1817879,30.0227308 54.1817879,24.7190978 C54.1817879,21.9023358 53.3697484,19.5677222 51.8471743,18.0705244 C50.6037388,16.8270889 48.9796598,16.192683 47.1271947,16.192683 C42.8893635,16.192683 40.0472253,19.6184747 40.0472253,24.7698503 C40.0472253,29.8958497 42.8893635,33.3470176 47.1525709,33.3470176 Z M68.8746277,34.2098095 L61.5408959,34.2098095 C60.5004703,34.2098095 59.815312,34.2351858 58.9778962,34.2859382 C59.1301536,33.3470176 59.1809061,32.5603543 59.1809061,31.4184237 L59.1809061,17.9943957 C59.1809061,16.9032176 59.1301536,16.2180593 58.9778962,15.3552673 L60.6781039,15.3552673 C60.5258465,16.2688117 60.4750941,16.8524651 60.4750941,17.9943957 L60.4750941,33.0171265 L68.8746277,33.0171265 C69.9150533,33.0171265 70.5748354,32.966374 71.5137561,32.8394929 L71.5137561,34.3874432 C70.7017166,34.260562 70.1180632,34.2098095 68.8746277,34.2098095 Z M73.9498746,31.4184237 L73.9498746,17.9943957 C73.9498746,17.055475 73.8991221,16.294188 73.7468647,15.2791386 C74.6096567,15.329891 75.2694388,15.3552673 76.3098644,15.3552673 L80.4461906,15.3552673 C82.9584378,15.3552673 85.0646653,16.1419306 86.5364869,17.6137522 C88.1351897,19.2124549 88.9726054,21.6231972 88.9726054,24.6429691 C88.9726054,30.5302555 85.6990712,34.2098095 80.4461906,34.2098095 L76.3098644,34.2098095 C75.2694388,34.2098095 74.5842805,34.2351858 73.7468647,34.2859382 C73.8991221,33.3470176 73.9498746,32.5603543 73.9498746,31.4184237 Z M75.2440625,33.0171265 L80.4715669,33.0171265 C84.8870317,33.0171265 87.627665,29.819721 87.627665,24.6429691 C87.627665,19.5169697 85.0646653,16.5479503 80.6238243,16.5479503 L75.2440625,16.5479503 L75.2440625,33.0171265 Z M35.7586416,45.1531392 L34.4390774,45.6352877 C34.0076815,44.4679809 33.7285429,43.9604562 33.195642,43.3514266 C32.0790876,42.0826148 30.4550086,41.3974565 28.4756623,41.3974565 C24.11095,41.3974565 21.3449404,44.7217432 21.3449404,49.9746238 C21.3449404,55.2021281 24.11095,58.5264148 28.4756623,58.5264148 C30.607266,58.5264148 32.3836024,57.7143753 33.525533,56.2425537 C34.1091864,55.4558904 34.388325,54.8214846 34.6420873,53.6541778 L36.012404,54.0855738 C35.581008,55.405138 35.3018694,55.9887913 34.819721,56.7247021 C33.4240281,58.6786722 31.1655432,59.7444741 28.3487812,59.7444741 C26.0649201,59.7444741 24.11095,59.0085633 22.7152571,57.6128704 C20.9389207,55.8619102 20,53.1974055 20,50 C20,46.8025945 20.9389207,44.1380898 22.7406333,42.3617534 C24.1617025,40.915308 26.0395438,40.2047735 28.3995336,40.2047735 C30.708771,40.2047735 32.5612361,40.8899318 33.8808003,42.1841198 C34.6928398,42.9961593 35.1242358,43.6813176 35.7586416,45.1531392 Z M51.1112635,53.349663 L41.8743142,53.349663 L40.4278688,56.8769596 C40.0726015,57.7143753 39.7934629,58.6279197 39.6158293,59.414583 L37.7126117,59.414583 C38.2455126,58.5264148 38.39777,58.2219 39.0829284,56.5470685 L44.8179574,42.8439019 C45.3001058,41.6765951 45.5031157,41.0929417 45.6299969,40.5600408 L47.3048283,40.5600408 C47.4063333,40.9914367 47.5332145,41.3213278 48.1676203,42.8439019 L53.9026493,56.5470685 C54.5370552,58.0696426 54.8669462,58.7548009 55.272966,59.414583 L53.3697484,59.414583 C53.1667385,58.5771673 52.8622237,57.6382466 52.5577089,56.8769596 L51.1112635,53.349663 Z M50.6291151,52.1569799 L47.1018185,43.3768028 C47.0003135,43.1484167 46.8988086,42.8439019 46.4927888,41.6512188 C46.2390265,42.3363772 46.0613929,42.8692781 45.9345117,43.2245454 C45.9091354,43.3006741 45.9091354,43.3514266 45.8837592,43.3768028 L42.3564626,52.1569799 L50.6291151,52.1569799 Z M72.5034292,59.414583 L70.5240829,59.414583 C70.4733305,58.653296 70.0165582,57.3337318 68.9507564,54.9483657 C67.3266774,51.3956929 66.3877567,50.4567722 64.3322817,50.4567722 L59.1809061,50.4567722 L59.1809061,56.7754546 C59.1809061,57.9427614 59.2316586,58.551791 59.383916,59.414583 L57.6837083,59.414583 C57.8359657,58.551791 57.8867181,57.8920089 57.8867181,56.7754546 L57.8867181,43.1991691 C57.8867181,42.2602485 57.8359657,41.4989614 57.6837083,40.4839121 C58.5465002,40.5346645 59.2062823,40.5600408 60.2467079,40.5600408 L65.6010934,40.5600408 C69.229895,40.5600408 71.1331126,42.1841198 71.1331126,45.2546441 C71.1331126,46.9294756 70.5494592,48.1982873 69.4075286,49.0864556 C68.6716178,49.6193565 68.0625882,49.8731188 66.7937765,50.1268812 C67.7834496,50.431396 68.4432317,51.1419306 69.3567761,52.918267 C70.1434394,54.4662173 70.7270928,55.7096528 71.3614987,57.1307219 C71.8943996,58.3234049 72.1481619,58.8309296 72.5034292,59.414583 Z M59.1809061,49.2640892 L65.6264697,49.2640892 C68.1387169,49.2640892 69.7881721,47.7161389 69.7881721,45.3561491 C69.7881721,43.0215355 68.367103,41.7527238 65.8041033,41.7527238 L59.1809061,41.7527238 L59.1809061,49.2640892 Z M75.7515872,56.6231972 L75.7515872,43.1991691 C75.7515872,42.2602485 75.7008348,41.4989614 75.5485774,40.4839121 C76.4113693,40.5346645 77.0711514,40.5600408 78.111577,40.5600408 L82.2479033,40.5600408 C84.7601505,40.5600408 86.866378,41.346704 88.3381996,42.8185256 C89.9369023,44.4172284 90.7743181,46.8279707 90.7743181,49.8477426 C90.7743181,55.735029 87.5007838,59.414583 82.2479033,59.414583 L78.111577,59.414583 C77.0711514,59.414583 76.3859931,59.4399592 75.5485774,59.4907117 C75.7008348,58.551791 75.7515872,57.7651278 75.7515872,56.6231972 Z M77.0457752,58.2219 L82.2732795,58.2219 C86.6887443,58.2219 89.4293776,55.0244944 89.4293776,49.8477426 C89.4293776,44.7217432 86.866378,41.7527238 82.4255369,41.7527238 L77.0457752,41.7527238 L77.0457752,58.2219 Z M20.1015049,79.4172284 L21.624079,79.1888423 C21.7002077,80.457654 21.9032176,81.0920599 22.4361185,81.8533469 C23.3242867,83.0460299 24.9483657,83.7311883 26.9530883,83.7311883 C30.2012463,83.7311883 32.1552163,82.1578617 32.1552163,79.5694858 C32.1552163,78.2499216 31.6476916,77.2602485 30.607266,76.6765951 C29.7952265,76.1944466 29.084692,75.9914367 26.5216923,75.4585358 C24.4662173,75.0271398 23.4511679,74.6718726 22.6137522,74.1135954 C21.3703167,73.2761797 20.6851583,72.0073679 20.6851583,70.5355463 C20.6851583,67.4396457 23.0705244,65.4856757 26.8262071,65.4856757 C29.1861969,65.4856757 31.038662,66.2723389 32.1298401,67.7441605 C32.6881173,68.4546951 32.9165034,69.0383485 33.1702657,70.281784 L31.7238203,70.5355463 C31.5461867,69.4443682 31.3178006,68.9114673 30.7848997,68.2770615 C29.9221077,67.2366358 28.5264148,66.6783587 26.8008309,66.6783587 C23.9586926,66.6783587 22.0047225,68.2516852 22.0047225,70.5355463 C22.0047225,71.804358 22.7406333,72.8447837 24.0855738,73.4791895 C24.7707321,73.7837043 25.3543855,73.961338 26.927712,74.2658528 C29.2623256,74.722625 30.4042562,75.0778923 31.3431768,75.6361695 C32.8149984,76.4989614 33.5001568,77.7677732 33.5001568,79.594862 C33.5001568,83.0206537 31.140167,84.9238713 26.9530883,84.9238713 C24.2378312,84.9238713 22.2331086,84.0864556 21.1165543,82.4877528 C20.5329009,81.650337 20.3045148,80.9398025 20.1015049,79.4172284 Z M44.8179574,65.409547 C49.969333,65.409547 53.2428672,69.2159821 53.2428672,75.2047735 C53.2428672,81.1935648 49.969333,84.9746238 44.8179574,84.9746238 C39.6665818,84.9746238 36.3930475,81.1935648 36.3930475,75.2047735 C36.3930475,69.2413584 39.691958,65.409547 44.8179574,65.409547 Z M44.8433336,83.7565645 C49.1572935,83.7565645 51.8725506,80.4322778 51.8725506,75.1286448 C51.8725506,72.3118827 51.0605111,69.9772692 49.537937,68.4800713 C48.2945015,67.2366358 46.6704225,66.60223 44.8179574,66.60223 C40.5801262,66.60223 37.7379879,70.0280216 37.7379879,75.1793972 C37.7379879,80.3053966 40.5801262,83.7565645 44.8433336,83.7565645 Z M56.6432826,65.7648142 L58.3434904,65.7648142 C58.191233,66.6276062 58.1404805,67.2366358 58.1404805,68.4039426 L58.1404805,77.8692781 C58.1404805,81.6249608 60.3735891,83.8326932 64.1546481,83.8326932 C67.935707,83.8326932 70.0926869,81.6757133 70.0926869,77.8692781 L70.0926869,68.4039426 C70.0926869,67.3127645 70.0419345,66.6276062 69.8896771,65.7648142 L71.5898848,65.7648142 C71.4376274,66.60223 71.3868749,67.2366358 71.3868749,68.3531902 L71.3868749,77.970783 C71.3868749,80.1023867 70.752469,81.8787232 69.5344098,83.0967824 C68.2909743,84.3402179 66.4131329,85 64.0531431,85 C59.5107971,85 56.8462925,82.4116241 56.8462925,77.970783 L56.8462925,68.4039426 C56.8462925,67.2873883 56.7955401,66.6276062 56.6432826,65.7648142 Z M85.5214375,84.6193565 L78.1877058,84.6193565 C77.1472801,84.6193565 76.4621218,84.6447327 75.6247061,84.6954852 C75.7769635,83.7565645 75.8277159,82.9699012 75.8277159,81.8279707 L75.8277159,68.4039426 C75.8277159,67.3127645 75.7769635,66.6276062 75.6247061,65.7648142 L77.3249138,65.7648142 C77.1726564,66.6783587 77.1219039,67.2620121 77.1219039,68.4039426 L77.1219039,83.4266735 L85.5214375,83.4266735 C86.5618631,83.4266735 87.2216452,83.375921 88.1605659,83.2490398 L88.1605659,84.7969901 C87.3485264,84.670109 86.764873,84.6193565 85.5214375,84.6193565 Z" id="GOLD-CARD-SOUL" fill="#B09A60"></path>
    </g>
</svg>