<svg class="location-icon" viewBox="0 0 42 60" version="1.1" xmlns="http://www.w3.org/2000/svg" xmlns:xlink="http://www.w3.org/1999/xlink">
    <g id="Page-1" stroke="none" stroke-width="1" fill="none" fill-rule="evenodd">
        <g id="Fill-396" fill="#000000">
            <path d="M21,30 C16.037,30 12,25.963 12,21 C12,16.037 16.037,12 21,12 C25.963,12 30,16.037 30,21 C30,25.963 25.963,30 21,30 M21,0 C9.421,0 0,9.421 0,21 C0,32.248 19.372,58.484 20.197,59.596 C20.386,59.85 20.684,60 21,60 C21.316,60 21.614,59.85 21.803,59.596 C22.628,58.484 42,32.248 42,21 C42,9.421 32.579,0 21,0"></path>
        </g>
    </g>
</svg>