<svg width="480px" height="475px" viewBox="0 0 480 475" version="1.1" xmlns="http://www.w3.org/2000/svg" xmlns:xlink="http://www.w3.org/1999/xlink">
    <g id="Homepage" stroke="none" stroke-width="1" fill="none" fill-rule="evenodd" transform="translate(-114.000000, -95.000000)">
        <path d="M209.518107,171.414485 L199.01972,171.414485 C189.553962,171.414485 186.456077,171.58659 181.120832,172.447114 L181.120832,162.465041 C186.800287,163.325565 190.58659,163.497669 199.01972,163.497669 L202.117605,163.497669 C209.001793,163.497669 213.30441,163.325565 219.328075,162.981355 C218.467551,169.177124 218.123342,173.996056 218.123342,181.396558 L218.123342,196.025457 C218.123342,203.08175 218.467551,206.868053 219.328075,213.580136 C210.206526,219.259591 205.559699,221.496952 197.987092,223.734313 C190.070276,226.143779 180.604518,227.520617 171.827178,227.520617 C157.714593,227.520617 146.527788,224.250627 137.578343,217.710649 C122.43313,206.523844 114,186.387594 114,161.604518 C114,134.756185 123.982072,113.759412 141.708856,102.744711 C150.314091,97.4094658 159.951954,95 171.999283,95 C184.046612,95 194.200789,97.7536752 201.773395,102.916816 C209.690212,108.424166 214.509143,114.619935 219.328075,125.978845 L210.72284,129.420939 C204.010757,111.86626 191.102904,103.088921 171.655074,103.088921 C141.880961,103.088921 123.293654,125.634636 123.293654,161.776622 C123.293654,185.354966 131.726784,203.942273 146.355683,213.235927 C153.239871,217.36644 162.705629,219.775905 172.859806,219.775905 C186.800287,219.775905 198.675511,216.333811 209.518107,209.105414 L209.518107,171.414485 Z M297.979921,95 C332.917175,95 355.118681,120.815705 355.118681,161.432413 C355.118681,202.049122 332.917175,227.692721 297.979921,227.692721 C263.042668,227.692721 240.841162,202.049122 240.841162,161.432413 C240.841162,120.987809 263.214772,95 297.979921,95 Z M298.152026,219.431696 C327.409824,219.431696 345.825027,196.885981 345.825027,160.916099 C345.825027,141.812478 340.317677,125.978845 329.991395,115.824668 C321.558265,107.391538 310.543564,103.088921 297.979921,103.088921 C269.238437,103.088921 249.962711,126.323055 249.962711,161.260308 C249.962711,196.025457 269.238437,219.431696 298.152026,219.431696 Z M445.473646,225.283256 L395.735389,225.283256 C388.679096,225.283256 384.03227,225.45536 378.352815,225.79957 C379.385443,219.431696 379.729652,214.09645 379.729652,206.351739 L379.729652,115.308354 C379.729652,107.907852 379.385443,103.261025 378.352815,97.4094658 L389.883829,97.4094658 C388.851201,103.605235 388.506992,107.563643 388.506992,115.308354 L388.506992,217.194335 L445.473646,217.194335 C452.529939,217.194335 457.004661,216.850125 463.372535,215.989602 L463.372535,226.487989 C457.865185,225.627465 453.906777,225.283256 445.473646,225.283256 Z M479.894586,206.351739 L479.894586,115.308354 C479.894586,108.94048 479.550376,103.77734 478.517748,96.8931517 C484.369308,97.2373611 488.84403,97.4094658 495.900323,97.4094658 L523.953388,97.4094658 C540.991753,97.4094658 555.276443,102.744711 565.258516,112.726784 C576.101112,123.56938 581.780567,139.919326 581.780567,160.399785 C581.780567,200.328075 559.579061,225.283256 523.953388,225.283256 L495.900323,225.283256 C488.84403,225.283256 484.197203,225.45536 478.517748,225.79957 C479.550376,219.431696 479.894586,214.09645 479.894586,206.351739 Z M488.671925,217.194335 L524.125493,217.194335 C554.07171,217.194335 572.659018,195.509143 572.659018,160.399785 C572.659018,125.634636 555.276443,105.498387 525.158121,105.498387 L488.671925,105.498387 L488.671925,217.194335 Z M220.877017,299.502243 L211.927573,302.772233 C209.001793,294.855417 207.108641,291.413323 203.494442,287.28281 C195.921836,278.677575 184.907135,274.030748 171.482969,274.030748 C141.880961,274.030748 123.121549,296.576464 123.121549,332.202136 C123.121549,367.655703 141.880961,390.201419 171.482969,390.201419 C185.939763,390.201419 197.987092,384.694068 205.731804,374.711996 C209.690212,369.37675 211.583363,365.074133 213.30441,357.157317 L222.598064,360.083097 C219.672284,369.032541 217.779132,372.990949 214.509143,377.981985 C205.043385,391.234047 189.726067,398.462444 170.622445,398.462444 C155.133023,398.462444 141.880961,393.471408 132.415203,384.00565 C120.367874,372.130426 114,354.059432 114,332.374241 C114,310.689049 120.367874,292.618055 132.587307,280.570727 C142.22517,270.760759 154.960918,265.941827 170.966655,265.941827 C186.628182,265.941827 199.191825,270.588654 208.141269,279.365994 C213.64862,284.873344 216.574399,289.520171 220.877017,299.502243 Z M325.000359,355.092061 L262.354249,355.092061 L252.544281,379.014613 C250.134815,384.694068 248.241664,390.889837 247.036931,396.225083 L234.129079,396.225083 C237.743277,390.201419 238.775905,388.136162 243.422732,376.777252 L282.318394,283.840716 C285.588383,275.9239 286.965221,271.965492 287.825744,268.351293 L299.184654,268.351293 C299.873073,271.277073 300.733596,273.514434 305.036214,283.840716 L343.931875,376.777252 C348.234493,387.103534 350.471854,391.750361 353.225529,396.225083 L340.317677,396.225083 C338.940839,390.545628 336.875583,384.177754 334.810326,379.014613 L325.000359,355.092061 Z M321.730369,347.00314 L297.807816,287.454915 C297.119398,285.905972 296.430979,283.840716 293.677304,275.751795 C291.956257,280.398622 290.751524,284.012821 289.891,286.422286 C289.718896,286.9386 289.718896,287.28281 289.546791,287.454915 L265.624238,347.00314 L321.730369,347.00314 Z M470.084618,396.225083 L456.660452,396.225083 C456.316242,391.061942 453.218358,382.112498 445.989961,365.934656 C434.97526,341.839999 428.607386,335.472125 414.666906,335.472125 L379.729652,335.472125 L379.729652,378.326195 C379.729652,386.243011 380.073862,390.373523 381.10649,396.225083 L369.575475,396.225083 C370.608103,390.373523 370.952313,385.898801 370.952313,378.326195 L370.952313,286.250182 C370.952313,279.882308 370.608103,274.719167 369.575475,267.834979 C375.427035,268.179189 379.901757,268.351293 386.958049,268.351293 L423.272141,268.351293 C447.883112,268.351293 460.790965,279.365994 460.790965,300.190662 C460.790965,311.549572 456.832556,320.154807 449.087845,326.178471 C444.096809,329.79267 439.966296,331.513717 431.361061,333.234764 C438.073144,335.30002 442.547867,340.118952 448.743636,352.166281 C454.078881,362.664667 458.037289,371.097797 462.339907,380.73566 C465.954105,388.824581 467.675152,392.266675 470.084618,396.225083 Z M379.729652,327.383204 L423.444245,327.383204 C440.48261,327.383204 451.669416,316.884818 451.669416,300.879081 C451.669416,285.045449 442.031553,276.440214 424.648978,276.440214 L379.729652,276.440214 L379.729652,327.383204 Z M492.114019,377.293566 L492.114019,286.250182 C492.114019,279.882308 491.76981,274.719167 490.737182,267.834979 C496.588741,268.179189 501.063464,268.351293 508.119756,268.351293 L536.172822,268.351293 C553.211187,268.351293 567.495877,273.686539 577.477949,283.668611 C588.320545,294.511207 594,310.861153 594,331.341612 C594,371.269902 571.798494,396.225083 536.172822,396.225083 L508.119756,396.225083 C501.063464,396.225083 496.416637,396.397188 490.737182,396.741397 C491.76981,390.373523 492.114019,385.038278 492.114019,377.293566 Z M500.891359,388.136162 L536.344926,388.136162 C566.291144,388.136162 584.878451,366.450971 584.878451,331.341612 C584.878451,296.576464 567.495877,276.440214 537.377555,276.440214 L500.891359,276.440214 L500.891359,388.136162 Z M114.688419,531.885448 L125.014701,530.336505 C125.531015,538.94174 126.907852,543.244358 130.522051,548.407499 C136.545715,556.496419 147.560416,561.143246 161.156687,561.143246 C183.186088,561.143246 196.43815,550.472755 196.43815,532.918076 C196.43815,523.968632 192.996056,517.256548 185.939763,513.29814 C180.432413,510.028151 175.613482,508.651314 158.230907,505.037115 C144.290427,502.111335 137.406239,499.701869 131.726784,495.915566 C123.293654,490.236111 118.646827,481.630876 118.646827,471.648804 C118.646827,450.652031 134.824668,437.399969 160.296163,437.399969 C176.3019,437.399969 188.865543,442.735215 196.266045,452.717287 C200.052349,457.536219 201.601291,461.494627 203.322338,469.927757 L193.51237,471.648804 C192.307637,464.248302 190.758695,460.634103 187.144496,456.331486 C181.292937,449.275193 171.827178,445.48889 160.124059,445.48889 C140.848333,445.48889 127.596271,456.159381 127.596271,471.648804 C127.596271,480.254039 132.587307,487.310331 141.708856,491.612949 C146.355683,493.678205 150.314091,494.882938 160.984582,496.948194 C176.818214,500.046079 184.562926,502.455544 190.9308,506.241848 C200.912872,512.093407 205.559699,520.698642 205.559699,533.090181 C205.559699,556.324315 189.553962,569.232167 161.156687,569.232167 C142.741484,569.232167 129.145213,563.552712 121.572607,552.710116 C117.614199,547.030661 116.065256,542.211729 114.688419,531.885448 Z M282.318394,436.883655 C317.255647,436.883655 339.457153,462.699359 339.457153,503.316068 C339.457153,543.932776 317.255647,569.576376 282.318394,569.576376 C247.38114,569.576376 225.179634,543.932776 225.179634,503.316068 C225.179634,462.871464 247.553245,436.883655 282.318394,436.883655 Z M282.490498,561.315351 C311.748297,561.315351 330.163499,538.769636 330.163499,502.799754 C330.163499,483.696132 324.656149,467.8625 314.329867,457.708323 C305.896737,449.275193 294.882037,444.972576 282.318394,444.972576 C253.576909,444.972576 234.301183,468.20671 234.301183,503.143963 C234.301183,537.909112 253.576909,561.315351 282.490498,561.315351 Z M362.519183,439.293121 L374.050197,439.293121 C373.017569,445.14468 372.67336,449.275193 372.67336,457.192009 L372.67336,521.387061 C372.67336,546.858556 387.818573,561.831665 413.462173,561.831665 C439.105773,561.831665 453.734672,547.202766 453.734672,521.387061 L453.734672,457.192009 C453.734672,449.791507 453.390463,445.14468 452.357834,439.293121 L463.888849,439.293121 C462.856221,444.972576 462.512011,449.275193 462.512011,456.8478 L462.512011,522.07548 C462.512011,536.532274 458.209394,548.579603 449.948369,556.840629 C441.515238,565.273759 428.779491,569.748481 412.773754,569.748481 C381.967013,569.748481 363.89602,552.193802 363.89602,522.07548 L363.89602,457.192009 C363.89602,449.619402 363.551811,445.14468 362.519183,439.293121 Z M558.374328,567.166911 L508.63607,567.166911 C501.579778,567.166911 496.932951,567.339015 491.253496,567.683225 C492.286124,561.315351 492.630333,555.980105 492.630333,548.235394 L492.630333,457.192009 C492.630333,449.791507 492.286124,445.14468 491.253496,439.293121 L502.784511,439.293121 C501.751882,445.48889 501.407673,449.447298 501.407673,457.192009 L501.407673,559.07799 L558.374328,559.07799 C565.43062,559.07799 569.905342,558.73378 576.273216,557.873257 L576.273216,568.371643 C570.765866,567.51112 566.807458,567.166911 558.374328,567.166911 Z" id="GOLD-CARD-SOUL" fill="#B09A60"></path>
    </g>
</svg>